<svg width="400" height="400" viewBox="0 0 400 400" fill="none" xmlns="http://www.w3.org/2000/svg">
  <defs>
    <linearGradient id="grad" x1="0%" y1="0%" x2="100%" y2="100%">
      <stop offset="0%" stop-color="#6366F1" />
      <stop offset="100%" stop-color="#8B5CF6" />
    </linearGradient>
    <filter id="shadow" x="-20%" y="-20%" width="140%" height="140%">
      <feDropShadow dx="0" dy="8" stdDeviation="6" flood-opacity="0.25" flood-color="#000000"/>
    </filter>
  </defs>
  <!-- Card Background -->
  <rect width="400" height="400" rx="28" fill="url(#grad)" />
  <!-- Glassmorphism Interior Ring -->
  <rect x="14" y="14" width="372" height="372" rx="20" fill="white" fill-opacity="0.04" stroke="white" stroke-opacity="0.09" stroke-width="1.5" />
  
  <!-- Centered Drawing (with shadow drop filter) -->
  <g filter="url(#shadow)">
    <path d="M130,110 h140 a15,15 0 0 1 15,15 v140 a15,15 0 0 1 -15,15 h-140 a15,15 0 0 1 -15,-15 v-140 a15,15 0 0 1 15,-15 Z" fill="white" opacity="0.9" />
           <path d="M160,150 h80 M160,185 h80 M160,220 h50" stroke="#6366F1" stroke-width="8" stroke-linecap="round" />
           <rect x="235" y="70" width="30" height="40" rx="6" fill="white" opacity="0.7" />
  </g>
  
  <!-- Typography Branding -->
  <text x="200" y="325" font-family="-apple-system, BlinkMacSystemFont, 'Outfit', 'Inter', 'Segoe UI', sans-serif" font-size="20" font-weight="700" fill="white" fill-opacity="0.92" letter-spacing="2.5" text-anchor="middle" style="text-transform: uppercase;">
    ARTÍCULOS OFICINA
  </text>
  <text x="200" y="350" font-family="-apple-system, BlinkMacSystemFont, 'Outfit', 'Inter', 'Segoe UI', sans-serif" font-size="11" font-weight="500" fill="white" fill-opacity="0.45" letter-spacing="1.5" text-anchor="middle" style="text-transform: uppercase;">
    OFFICE CITY CATALOG
  </text>
</svg>