<svg width="400" height="400" viewBox="0 0 400 400" fill="none" xmlns="http://www.w3.org/2000/svg">
  <defs>
    <linearGradient id="grad" x1="0%" y1="0%" x2="100%" y2="100%">
      <stop offset="0%" stop-color="#78350F" />
      <stop offset="100%" stop-color="#D97706" />
    </linearGradient>
    <filter id="shadow" x="-20%" y="-20%" width="140%" height="140%">
      <feDropShadow dx="0" dy="8" stdDeviation="6" flood-opacity="0.25" flood-color="#000000"/>
    </filter>
  </defs>
  <!-- Card Background -->
  <rect width="400" height="400" rx="28" fill="url(#grad)" />
  <!-- Glassmorphism Interior Ring -->
  <rect x="14" y="14" width="372" height="372" rx="20" fill="white" fill-opacity="0.04" stroke="white" stroke-opacity="0.09" stroke-width="1.5" />
  
  <!-- Centered Drawing (with shadow drop filter) -->
  <g filter="url(#shadow)">
    <path d="M130,130 h110 a12,12 0 0 1 12,12 v65 a50,50 0 0 1 -50,50 h-34 a50,50 0 0 1 -50,-50 v-65 a12,12 0 0 1 12,-12 Z" fill="white" opacity="0.9" />
           <path d="M252,150 h12 a15,15 0 0 1 15,15 v20 a15,15 0 0 1 -15,15 h-12" stroke="white" stroke-width="10" stroke-linecap="round" fill="none" />
           <path d="M160,90 v20 M185,90 v20 M210,90 v20" stroke="white" stroke-width="5" stroke-linecap="round" opacity="0.7" />
  </g>
  
  <!-- Typography Branding -->
  <text x="200" y="325" font-family="-apple-system, BlinkMacSystemFont, 'Outfit', 'Inter', 'Segoe UI', sans-serif" font-size="20" font-weight="700" fill="white" fill-opacity="0.92" letter-spacing="2.5" text-anchor="middle" style="text-transform: uppercase;">
    CAFETERÍA & DESPENSA
  </text>
  <text x="200" y="350" font-family="-apple-system, BlinkMacSystemFont, 'Outfit', 'Inter', 'Segoe UI', sans-serif" font-size="11" font-weight="500" fill="white" fill-opacity="0.45" letter-spacing="1.5" text-anchor="middle" style="text-transform: uppercase;">
    OFFICE CITY CATALOG
  </text>
</svg>