<svg width="400" height="400" viewBox="0 0 400 400" fill="none" xmlns="http://www.w3.org/2000/svg">
  <defs>
    <linearGradient id="grad" x1="0%" y1="0%" x2="100%" y2="100%">
      <stop offset="0%" stop-color="#06B6D4" />
      <stop offset="100%" stop-color="#2563EB" />
    </linearGradient>
    <filter id="shadow" x="-20%" y="-20%" width="140%" height="140%">
      <feDropShadow dx="0" dy="8" stdDeviation="6" flood-opacity="0.25" flood-color="#000000"/>
    </filter>
  </defs>
  <!-- Card Background -->
  <rect width="400" height="400" rx="28" fill="url(#grad)" />
  <!-- Glassmorphism Interior Ring -->
  <rect x="14" y="14" width="372" height="372" rx="20" fill="white" fill-opacity="0.04" stroke="white" stroke-opacity="0.09" stroke-width="1.5" />
  
  <!-- Centered Drawing (with shadow drop filter) -->
  <g filter="url(#shadow)">
    <path d="M200,90 C200,90 270,180 270,225 C270,263.7 238.7,295 200,295 C161.3,295 130,263.7 130,225 C130,180 200,90 200,90 Z" fill="white" opacity="0.95" />
           <path d="M175,200 C175,185 200,160 200,160" stroke="#06B6D4" stroke-width="6" stroke-linecap="round" fill="none" />
           <circle cx="215" cy="225" r="15" fill="#3B82F6" />
           <circle cx="180" cy="245" r="10" fill="#06B6D4" />
  </g>
  
  <!-- Typography Branding -->
  <text x="200" y="325" font-family="-apple-system, BlinkMacSystemFont, 'Outfit', 'Inter', 'Segoe UI', sans-serif" font-size="20" font-weight="700" fill="white" fill-opacity="0.92" letter-spacing="2.5" text-anchor="middle" style="text-transform: uppercase;">
    CARTUCHO TINTA
  </text>
  <text x="200" y="350" font-family="-apple-system, BlinkMacSystemFont, 'Outfit', 'Inter', 'Segoe UI', sans-serif" font-size="11" font-weight="500" fill="white" fill-opacity="0.45" letter-spacing="1.5" text-anchor="middle" style="text-transform: uppercase;">
    OFFICE CITY CATALOG
  </text>
</svg>