<svg width="400" height="400" viewBox="0 0 400 400" fill="none" xmlns="http://www.w3.org/2000/svg">
  <defs>
    <linearGradient id="grad" x1="0%" y1="0%" x2="100%" y2="100%">
      <stop offset="0%" stop-color="#EC4899" />
      <stop offset="100%" stop-color="#F97316" />
    </linearGradient>
    <filter id="shadow" x="-20%" y="-20%" width="140%" height="140%">
      <feDropShadow dx="0" dy="8" stdDeviation="6" flood-opacity="0.25" flood-color="#000000"/>
    </filter>
  </defs>
  <!-- Card Background -->
  <rect width="400" height="400" rx="28" fill="url(#grad)" />
  <!-- Glassmorphism Interior Ring -->
  <rect x="14" y="14" width="372" height="372" rx="20" fill="white" fill-opacity="0.04" stroke="white" stroke-opacity="0.09" stroke-width="1.5" />
  
  <!-- Centered Drawing (with shadow drop filter) -->
  <g filter="url(#shadow)">
    <path d="M200,100 c55.2,0 100,44.8 100,100 c0,27.6 -22.4,50 -50,50 c-10,0 -20,-5 -25,-10 c-5,-5 -15,-10 -25,-10 c-27.6,0 -50,-22.4 -50,-50 c0,-55.2 44.8,-100 100,-100 Z" fill="white" opacity="0.9" />
           <circle cx="160" cy="170" r="12" fill="#EC4899" />
           <circle cx="200" cy="140" r="12" fill="#F97316" />
           <circle cx="240" cy="170" r="12" fill="#3B82F6" />
           <path d="M220,240 L280,290 L295,275 L240,220 Z" fill="white" />
  </g>
  
  <!-- Typography Branding -->
  <text x="200" y="325" font-family="-apple-system, BlinkMacSystemFont, 'Outfit', 'Inter', 'Segoe UI', sans-serif" font-size="20" font-weight="700" fill="white" fill-opacity="0.92" letter-spacing="2.5" text-anchor="middle" style="text-transform: uppercase;">
    ARTE & MANUALIDADES
  </text>
  <text x="200" y="350" font-family="-apple-system, BlinkMacSystemFont, 'Outfit', 'Inter', 'Segoe UI', sans-serif" font-size="11" font-weight="500" fill="white" fill-opacity="0.45" letter-spacing="1.5" text-anchor="middle" style="text-transform: uppercase;">
    OFFICE CITY CATALOG
  </text>
</svg>